{
  "accessors": [
    {
      "bufferView": 2,
      "componentType": 5126,
      "count": 20,
      "max": [
        1.0,
        2.303018093109131,
        1.0
      ],
      "min": [
        -1.0,
        -2.2119219303131104,
        -1.0
      ],
      "type": "VEC3"
    },
    {
      "bufferView": 2,
      "byteOffset": 240,
      "componentType": 5126,
      "count": 20,
      "max": [
        0.9717409610748291,
        0.3350808620452881,
        0.9955759644508362
      ],
      "min": [
        -0.7992438673973083,
        -6.766921615053434e-06,
        -0.7366470098495483
      ],
      "type": "VEC3"
    },
    {
      "bufferView": 1,
      "componentType": 5126,
      "count": 20,
      "max": [
        0.875,
        0.75
      ],
      "min": [
        0.375,
        0.0
      ],
      "type": "VEC2"
    },
    {
      "bufferView": 0,
      "componentType": 5125,
      "count": 48,
      "type": "SCALAR"
    },
    {
      "bufferView": 2,
      "byteOffset": 480,
      "componentType": 5126,
      "count": 41,
      "max": [
        1.108789086341858,
        3.2525830268859863,
        1.108789086341858
      ],
      "min": [
        -1.108789086341858,
        -3.2525830268859863,
        -1.0
      ],
      "type": "VEC3"
    },
    {
      "bufferView": 2,
      "byteOffset": 972,
      "componentType": 5126,
      "count": 41,
      "max": [
        0.9717409610748291,
        0.7055794596672058,
        0.9950096011161804
      ],
      "min": [
        -0.7992438673973083,
        -0.705443263053894,
        -0.8460420370101929
      ],
      "type": "VEC3"
    },
    {
      "bufferView": 1,
      "byteOffset": 160,
      "componentType": 5126,
      "count": 41,
      "max": [
        0.875,
        1.0
      ],
      "min": [
        0.125,
        0.0
      ],
      "type": "VEC2"
    },
    {
      "bufferView": 0,
      "byteOffset": 192,
      "componentType": 5125,
      "count": 105,
      "type": "SCALAR"
    },
    {
      "bufferView": 2,
      "byteOffset": 1464,
      "componentType": 5126,
      "count": 130,
      "max": [
        1.0,
        1.0,
        1.0
      ],
      "min": [
        -1.0,
        -1.0,
        -1.0
      ],
      "type": "VEC3"
    },
    {
      "bufferView": 2,
      "byteOffset": 3024,
      "componentType": 5126,
      "count": 130,
      "max": [
        0.7278876900672913,
        0.7278876900672913,
        0.6856964826583862
      ],
      "min": [
        -0.7278876900672913,
        -0.7278876900672913,
        -0.685696542263031
      ],
      "type": "VEC3"
    },
    {
      "bufferView": 1,
      "byteOffset": 488,
      "componentType": 5126,
      "count": 130,
      "max": [
        1.0,
        1.0
      ],
      "min": [
        0.0,
        0.01000000536441803
      ],
      "type": "VEC2"
    },
    {
      "bufferView": 0,
      "byteOffset": 612,
      "componentType": 5125,
      "count": 372,
      "type": "SCALAR"
    },
    {
      "bufferView": 2,
      "byteOffset": 4584,
      "componentType": 5126,
      "count": 56,
      "max": [
        1.0,
        1.14824640750885,
        1.3070793151855469
      ],
      "min": [
        -1.0800882577896118,
        -1.1274478435516357,
        -0.9906158447265625
      ],
      "type": "VEC3"
    },
    {
      "bufferView": 2,
      "byteOffset": 5256,
      "componentType": 5126,
      "count": 56,
      "max": [
        1.0,
        0.7771464586257935,
        0.740047812461853
      ],
      "min": [
        -1.0,
        -0.7364006638526917,
        -0.7935141921043396
      ],
      "type": "VEC3"
    },
    {
      "bufferView": 1,
      "byteOffset": 1528,
      "componentType": 5126,
      "count": 56,
      "max": [
        0.875,
        1.0
      ],
      "min": [
        0.125,
        0.0
      ],
      "type": "VEC2"
    },
    {
      "bufferView": 0,
      "byteOffset": 2100,
      "componentType": 5125,
      "count": 168,
      "type": "SCALAR"
    },
    {
      "bufferView": 2,
      "byteOffset": 5928,
      "componentType": 5126,
      "count": 762,
      "max": [
        1.5876166820526123,
        1.14824640750885,
        1.3070793151855469
      ],
      "min": [
        -1.0800882577896118,
        -1.1274478435516357,
        -0.9906158447265625
      ],
      "type": "VEC3"
    },
    {
      "bufferView": 2,
      "byteOffset": 15072,
      "componentType": 5126,
      "count": 762,
      "max": [
        1.0,
        1.0,
        1.0
      ],
      "min": [
        -1.0,
        -1.0,
        -1.0
      ],
      "type": "VEC3"
    },
    {
      "bufferView": 1,
      "byteOffset": 1976,
      "componentType": 5126,
      "count": 762,
      "max": [
        1.0,
        1.0
      ],
      "min": [
        0.0,
        0.0
      ],
      "type": "VEC2"
    },
    {
      "bufferView": 0,
      "byteOffset": 2772,
      "componentType": 5125,
      "count": 3612,
      "type": "SCALAR"
    },
    {
      "bufferView": 2,
      "byteOffset": 24216,
      "componentType": 5126,
      "count": 1040,
      "max": [
        1.0669804811477661,
        1.0116864442825317,
        0.9560383558273315
      ],
      "min": [
        0.9167694449424744,
        -0.9925158023834229,
        0.2609238922595978
      ],
      "type": "VEC3"
    },
    {
      "bufferView": 2,
      "byteOffset": 36696,
      "componentType": 5126,
      "count": 1040,
      "max": [
        0.6931658983230591,
        0.7207794785499573,
        0.738242506980896
      ],
      "min": [
        -0.6931658983230591,
        -0.7207794189453125,
        -0.7382416725158691
      ],
      "type": "VEC3"
    },
    {
      "bufferView": 1,
      "byteOffset": 8072,
      "componentType": 5126,
      "count": 1040,
      "max": [
        1.0,
        1.0
      ],
      "min": [
        0.0,
        0.010000064969062805
      ],
      "type": "VEC2"
    },
    {
      "bufferView": 0,
      "byteOffset": 17220,
      "componentType": 5125,
      "count": 2976,
      "type": "SCALAR"
    },
    {
      "bufferView": 2,
      "byteOffset": 49176,
      "componentType": 5126,
      "count": 64,
      "max": [
        1.0593770742416382,
        0.060557834804058075,
        0.32997918128967285
      ],
      "min": [
        0.9717885255813599,
        -0.07720094919204712,
        0.1155550554394722
      ],
      "type": "VEC3"
    },
    {
      "bufferView": 2,
      "byteOffset": 49944,
      "componentType": 5126,
      "count": 64,
      "max": [
        0.6931657791137695,
        0.7207784056663513,
        0.7382409572601318
      ],
      "min": [
        -0.6931656002998352,
        -0.7207788825035095,
        -0.7382408976554871
      ],
      "type": "VEC3"
    },
    {
      "bufferView": 1,
      "byteOffset": 16392,
      "componentType": 5126,
      "count": 64,
      "max": [
        0.49000000953674316,
        0.49000006914138794
      ],
      "min": [
        0.01000000536441803,
        0.010000064969062805
      ],
      "type": "VEC2"
    },
    {
      "bufferView": 0,
      "byteOffset": 29124,
      "componentType": 5125,
      "count": 372,
      "type": "SCALAR"
    }
  ],
  "asset": {
    "extras": {
      "author": "amine.boymtrane (https://sketchfab.com/amine.boymtrane)",
      "license": "CC-BY-4.0 (http://creativecommons.org/licenses/by/4.0/)",
      "source": "https://sketchfab.com/3d-models/playstation-5-digital-lowpoly-fc7c2aad7dd641c29194088cc7fbf058",
      "title": "Playstation 5 Digital Lowpoly"
    },
    "generator": "Sketchfab-17.8.0",
    "version": "2.0"
  },
  "bufferViews": [
    {
      "buffer": 0,
      "byteLength": 30612,
      "name": "floatBufferViews",
      "target": 34963
    },
    {
      "buffer": 0,
      "byteLength": 16904,
      "byteOffset": 30612,
      "byteStride": 8,
      "name": "floatBufferViews",
      "target": 34962
    },
    {
      "buffer": 0,
      "byteLength": 50712,
      "byteOffset": 47516,
      "byteStride": 12,
      "name": "floatBufferViews",
      "target": 34962
    }
  ],
  "buffers": [
    {
      "byteLength": 98228,
      "uri": "scene.bin"
    }
  ],
  "materials": [
    {
      "doubleSided": true,
      "name": "Material.002",
      "pbrMetallicRoughness": {
        "baseColorFactor": [
          0.0,
          0.0,
          0.0,
          1.0
        ],
        "metallicFactor": 0.0
      }
    },
    {
      "doubleSided": true,
      "name": "Material.001",
      "pbrMetallicRoughness": {
        "baseColorFactor": [
          0.8,
          0.8,
          0.8,
          1.0
        ],
        "metallicFactor": 0.0,
        "roughnessFactor": 0.8211145618000169
      }
    },
    {
      "doubleSided": true,
      "name": "Material.003",
      "pbrMetallicRoughness": {
        "baseColorFactor": [
          0.0,
          0.0,
          0.0,
          1.0
        ],
        "metallicFactor": 0.0
      }
    },
    {
      "doubleSided": true,
      "name": "Material.005",
      "pbrMetallicRoughness": {
        "baseColorFactor": [
          0.8,
          0.8,
          0.8,
          1.0
        ],
        "metallicFactor": 0.0,
        "roughnessFactor": 0.8211145618000169
      }
    },
    {
      "doubleSided": true,
      "name": "Material.004",
      "pbrMetallicRoughness": {
        "baseColorFactor": [
          0.0116445,
          0.0119657,
          0.0122168,
          1.0
        ],
        "metallicFactor": 0.0,
        "roughnessFactor": 0.9970470280321275
      }
    },
    {
      "doubleSided": true,
      "name": "Material.006",
      "pbrMetallicRoughness": {
        "baseColorFactor": [
          0.496922,
          0.496922,
          0.496922,
          1.0
        ],
        "metallicFactor": 0.0,
        "roughnessFactor": 0.8888848628484849
      }
    },
    {
      "doubleSided": true,
      "name": "Material.007",
      "pbrMetallicRoughness": {
        "baseColorFactor": [
          0.0444544,
          0.0444544,
          0.0444544,
          1.0
        ],
        "metallicFactor": 0.0,
        "roughnessFactor": 0.9900596939701033
      }
    }
  ],
  "meshes": [
    {
      "name": "Cube_Material.002_0",
      "primitives": [
        {
          "attributes": {
            "NORMAL": 1,
            "POSITION": 0,
            "TEXCOORD_0": 2
          },
          "indices": 3,
          "material": 0,
          "mode": 4
        }
      ]
    },
    {
      "name": "Cube_Material.001_0",
      "primitives": [
        {
          "attributes": {
            "NORMAL": 5,
            "POSITION": 4,
            "TEXCOORD_0": 6
          },
          "indices": 7,
          "material": 1,
          "mode": 4
        }
      ]
    },
    {
      "name": "Cylinder_Material.003_0",
      "primitives": [
        {
          "attributes": {
            "NORMAL": 9,
            "POSITION": 8,
            "TEXCOORD_0": 10
          },
          "indices": 11,
          "material": 2,
          "mode": 4
        }
      ]
    },
    {
      "name": "Cube.001_Material.005_0",
      "primitives": [
        {
          "attributes": {
            "NORMAL": 13,
            "POSITION": 12,
            "TEXCOORD_0": 14
          },
          "indices": 15,
          "material": 3,
          "mode": 4
        }
      ]
    },
    {
      "name": "Cube.001_Material.004_0",
      "primitives": [
        {
          "attributes": {
            "NORMAL": 17,
            "POSITION": 16,
            "TEXCOORD_0": 18
          },
          "indices": 19,
          "material": 4,
          "mode": 4
        }
      ]
    },
    {
      "name": "Cube.001_Material.006_0",
      "primitives": [
        {
          "attributes": {
            "NORMAL": 21,
            "POSITION": 20,
            "TEXCOORD_0": 22
          },
          "indices": 23,
          "material": 5,
          "mode": 4
        }
      ]
    },
    {
      "name": "Cube.001_Material.007_0",
      "primitives": [
        {
          "attributes": {
            "NORMAL": 25,
            "POSITION": 24,
            "TEXCOORD_0": 26
          },
          "indices": 27,
          "material": 6,
          "mode": 4
        }
      ]
    }
  ],
  "nodes": [
    {
      "children": [
        1
      ],
      "matrix": [
        1.0,
        0.0,
        0.0,
        0.0,
        0.0,
        2.220446049250313e-16,
        -1.0,
        0.0,
        0.0,
        1.0,
        2.220446049250313e-16,
        0.0,
        0.0,
        0.0,
        0.0,
        1.0
      ],
      "name": "Sketchfab_model"
    },
    {
      "children": [
        2
      ],
      "matrix": [
        0.009999999776482582,
        0.0,
        0.0,
        0.0,
        0.0,
        0.0,
        0.009999999776482582,
        0.0,
        0.0,
        -0.009999999776482582,
        0.0,
        0.0,
        0.0,
        0.0,
        0.0,
        1.0
      ],
      "name": "05656cb8db6b44c79641aee26a37c4f6.fbx"
    },
    {
      "children": [
        3,
        6,
        8,
        13
      ],
      "name": "RootNode"
    },
    {
      "children": [
        4,
        5
      ],
      "matrix": [
        26.364283710368603,
        9.226174344594052e-06,
        166.45700066605266,
        0.0,
        22.454565775862438,
        -9.396743226893186e-06,
        -3.5564652753509365,
        0.0,
        0.00011328172041666799,
        283.43588256833476,
        -3.365205587061083e-05,
        0.0,
        -173.32627868652344,
        278.8616638183594,
        412.22711181640625,
        1.0
      ],
      "name": "Cube"
    },
    {
      "mesh": 0,
      "name": "Cube_Material.002_0"
    },
    {
      "mesh": 1,
      "name": "Cube_Material.001_0"
    },
    {
      "children": [
        7
      ],
      "matrix": [
        19.03283093216524,
        6.660534319097719e-06,
        120.16817850834767,
        0.0,
        120.16817850833802,
        -5.0287746766412204e-05,
        -19.03283093216093,
        0.0,
        9.445067421804439e-06,
        23.631977081296775,
        -2.8058007541831263e-06,
        0.0,
        -173.32627868652344,
        -0.8149085640907288,
        412.22711181640625,
        1.0
      ],
      "name": "Cylinder"
    },
    {
      "mesh": 2,
      "name": "Cylinder_Material.003_0"
    },
    {
      "children": [
        9,
        10,
        11,
        12
      ],
      "matrix": [
        20.516348210900258,
        1.296628790732687e-06,
        27.66516571951164,
        0.0,
        80.32289448612558,
        1.2626180187674173e-05,
        -59.567055888717064,
        0.0,
        -7.956337096596791e-06,
        64.24593353271429,
        2.8892599424161475e-06,
        0.0,
        52.067649841308594,
        74.21376037597656,
        451.81378173828125,
        1.0
      ],
      "name": "Cube.001"
    },
    {
      "mesh": 3,
      "name": "Cube.001_Material.005_0"
    },
    {
      "mesh": 4,
      "name": "Cube.001_Material.004_0"
    },
    {
      "mesh": 5,
      "name": "Cube.001_Material.006_0"
    },
    {
      "mesh": 6,
      "name": "Cube.001_Material.007_0"
    },
    {
      "children": [
        14
      ],
      "matrix": [
        -61.922804221354035,
        12.186588566802655,
        -77.56966788937115,
        0.0,
        7.603047751891731,
        99.25465761910905,
        9.524001564252904,
        0.0,
        78.15215916560665,
        -0.00013004794169255152,
        -62.38781946611673,
        0.0,
        887.8390502929688,
        118.70032501220703,
        1622.2301025390625,
        1.0
      ],
      "name": "Camera"
    },
    {
      "name": "Object_14"
    }
  ],
  "scene": 0,
  "scenes": [
    {
      "name": "Sketchfab_Scene",
      "nodes": [
        0
      ]
    }
  ]
}
