{
  "accessors": [
    {
      "bufferView": 1,
      "componentType": 5126,
      "count": 9531,
      "max": [
        -8.0,
        10.75,
        17.0
      ],
      "min": [
        -10.75,
        5.25,
        0.0
      ],
      "type": "VEC3"
    },
    {
      "bufferView": 1,
      "byteOffset": 114372,
      "componentType": 5126,
      "count": 9531,
      "max": [
        1.0,
        1.0,
        1.0
      ],
      "min": [
        -1.0,
        -1.0,
        -1.0
      ],
      "type": "VEC3"
    },
    {
      "bufferView": 2,
      "componentType": 5126,
      "count": 9531,
      "max": [
        0.7411764860153198,
        0.6313725709915161,
        0.46666666865348816,
        1.0
      ],
      "min": [
        0.08235294371843338,
        0.05882352963089943,
        0.01568627543747425,
        1.0
      ],
      "type": "VEC4"
    },
    {
      "bufferView": 0,
      "componentType": 5125,
      "count": 15078,
      "type": "SCALAR"
    },
    {
      "bufferView": 1,
      "byteOffset": 228744,
      "componentType": 5126,
      "count": 8512,
      "max": [
        -6.25,
        9.25,
        17.0
      ],
      "min": [
        -10.25,
        5.75,
        0.0
      ],
      "type": "VEC3"
    },
    {
      "bufferView": 1,
      "byteOffset": 330888,
      "componentType": 5126,
      "count": 8512,
      "max": [
        1.0,
        1.0,
        1.0
      ],
      "min": [
        -1.0,
        -1.0,
        -1.0
      ],
      "type": "VEC3"
    },
    {
      "bufferView": 2,
      "byteOffset": 152496,
      "componentType": 5126,
      "count": 8512,
      "max": [
        0.7411764860153198,
        0.6313725709915161,
        0.46666666865348816,
        1.0
      ],
      "min": [
        0.125490203499794,
        0.125490203499794,
        0.125490203499794,
        1.0
      ],
      "type": "VEC4"
    },
    {
      "bufferView": 0,
      "byteOffset": 60312,
      "componentType": 5125,
      "count": 13884,
      "type": "SCALAR"
    },
    {
      "bufferView": 1,
      "byteOffset": 433032,
      "componentType": 5126,
      "count": 9072,
      "max": [
        -5.25,
        10.75,
        16.0
      ],
      "min": [
        -8.0,
        5.25,
        8.0
      ],
      "type": "VEC3"
    },
    {
      "bufferView": 1,
      "byteOffset": 541896,
      "componentType": 5126,
      "count": 9072,
      "max": [
        1.0,
        1.0,
        1.0
      ],
      "min": [
        -1.0,
        -1.0,
        -1.0
      ],
      "type": "VEC3"
    },
    {
      "bufferView": 2,
      "byteOffset": 288688,
      "componentType": 5126,
      "count": 9072,
      "max": [
        0.7411764860153198,
        0.6313725709915161,
        0.46666666865348816,
        1.0
      ],
      "min": [
        0.08627451211214066,
        0.05882352963089943,
        0.01568627543747425,
        1.0
      ],
      "type": "VEC4"
    },
    {
      "bufferView": 0,
      "byteOffset": 115848,
      "componentType": 5125,
      "count": 14568,
      "type": "SCALAR"
    },
    {
      "bufferView": 1,
      "byteOffset": 650760,
      "componentType": 5126,
      "count": 3973,
      "max": [
        -6.25,
        9.25,
        8.0
      ],
      "min": [
        -8.0,
        5.75,
        3.0
      ],
      "type": "VEC3"
    },
    {
      "bufferView": 1,
      "byteOffset": 698436,
      "componentType": 5126,
      "count": 3973,
      "max": [
        1.0,
        1.0,
        1.0
      ],
      "min": [
        -1.0,
        -1.0,
        -1.0
      ],
      "type": "VEC3"
    },
    {
      "bufferView": 2,
      "byteOffset": 433840,
      "componentType": 5126,
      "count": 3973,
      "max": [
        0.7411764860153198,
        0.6313725709915161,
        0.46666666865348816,
        1.0
      ],
      "min": [
        0.125490203499794,
        0.125490203499794,
        0.125490203499794,
        1.0
      ],
      "type": "VEC4"
    },
    {
      "bufferView": 0,
      "byteOffset": 174120,
      "componentType": 5125,
      "count": 6582,
      "type": "SCALAR"
    }
  ],
  "asset": {
    "extras": {
      "author": "Lin0546 (https://sketchfab.com/tfognws)",
      "license": "CC-BY-NC-ND-4.0 (http://creativecommons.org/licenses/by-nc-nd/4.0/)",
      "source": "https://sketchfab.com/3d-models/scp-173-efd2f180e62445f18ea836051130d192",
      "title": "SCP-173"
    },
    "generator": "Sketchfab-12.68.0",
    "version": "2.0"
  },
  "bufferViews": [
    {
      "buffer": 0,
      "byteLength": 200448,
      "name": "floatBufferViews",
      "target": 34963
    },
    {
      "buffer": 0,
      "byteLength": 746112,
      "byteOffset": 200448,
      "byteStride": 12,
      "name": "floatBufferViews",
      "target": 34962
    },
    {
      "buffer": 0,
      "byteLength": 497408,
      "byteOffset": 946560,
      "byteStride": 16,
      "name": "floatBufferViews",
      "target": 34962
    }
  ],
  "buffers": [
    {
      "byteLength": 1443968,
      "uri": "scene.bin"
    }
  ],
  "materials": [
    {
      "doubleSided": true,
      "name": "Voxel",
      "pbrMetallicRoughness": {
        "baseColorFactor": [
          0.8,
          0.8,
          0.8,
          1.0
        ],
        "metallicFactor": 0.0
      }
    }
  ],
  "meshes": [
    {
      "name": "Object_0",
      "primitives": [
        {
          "attributes": {
            "COLOR_0": 2,
            "NORMAL": 1,
            "POSITION": 0
          },
          "indices": 3,
          "material": 0,
          "mode": 4
        }
      ]
    },
    {
      "name": "Object_1",
      "primitives": [
        {
          "attributes": {
            "COLOR_0": 6,
            "NORMAL": 5,
            "POSITION": 4
          },
          "indices": 7,
          "material": 0,
          "mode": 4
        }
      ]
    },
    {
      "name": "Object_2",
      "primitives": [
        {
          "attributes": {
            "COLOR_0": 10,
            "NORMAL": 9,
            "POSITION": 8
          },
          "indices": 11,
          "material": 0,
          "mode": 4
        }
      ]
    },
    {
      "name": "Object_3",
      "primitives": [
        {
          "attributes": {
            "COLOR_0": 14,
            "NORMAL": 13,
            "POSITION": 12
          },
          "indices": 15,
          "material": 0,
          "mode": 4
        }
      ]
    }
  ],
  "nodes": [
    {
      "children": [
        1
      ],
      "matrix": [
        1.0,
        0.0,
        0.0,
        0.0,
        0.0,
        2.220446049250313e-16,
        -1.0,
        0.0,
        0.0,
        1.0,
        2.220446049250313e-16,
        0.0,
        0.0,
        0.0,
        0.0,
        1.0
      ],
      "name": "Sketchfab_model"
    },
    {
      "children": [
        2,
        3,
        4,
        5
      ],
      "name": "CubikModel.obj.cleaner.materialmerger.gles"
    },
    {
      "mesh": 0,
      "name": "Object_2"
    },
    {
      "mesh": 1,
      "name": "Object_3"
    },
    {
      "mesh": 2,
      "name": "Object_4"
    },
    {
      "mesh": 3,
      "name": "Object_5"
    }
  ],
  "scene": 0,
  "scenes": [
    {
      "name": "Sketchfab_Scene",
      "nodes": [
        0
      ]
    }
  ]
}
