{
  "accessors": [
    {
      "bufferView": 2,
      "componentType": 5126,
      "count": 7928,
      "max": [
        3.9667611122131348,
        1.5937933921813965,
        1.4280157089233398
      ],
      "min": [
        -3.9667611122131348,
        -2.0610008239746094,
        -4.332551956176758
      ],
      "type": "VEC3"
    },
    {
      "bufferView": 2,
      "byteOffset": 95136,
      "componentType": 5126,
      "count": 7928,
      "max": [
        1.0,
        1.0,
        1.0
      ],
      "min": [
        -1.0,
        -1.0,
        -0.9999080300331116
      ],
      "type": "VEC3"
    },
    {
      "bufferView": 1,
      "componentType": 5126,
      "count": 7928,
      "max": [
        0.875,
        1.0000001192092896
      ],
      "min": [
        -0.000522613525390625,
        -0.00035643577575683594
      ],
      "type": "VEC2"
    },
    {
      "bufferView": 0,
      "componentType": 5125,
      "count": 12309,
      "type": "SCALAR"
    },
    {
      "bufferView": 2,
      "byteOffset": 190272,
      "componentType": 5126,
      "count": 48,
      "max": [
        -2.0710384845733643,
        0.9985302686691284,
        -0.34745463728904724
      ],
      "min": [
        -2.6628940105438232,
        0.82734614610672,
        -0.9246349334716797
      ],
      "type": "VEC3"
    },
    {
      "bufferView": 2,
      "byteOffset": 190848,
      "componentType": 5126,
      "count": 48,
      "max": [
        0.6481322050094604,
        0.9798762202262878,
        0.8118832111358643
      ],
      "min": [
        -0.6450855731964111,
        0.57952481508255,
        -0.44340792298316956
      ],
      "type": "VEC3"
    },
    {
      "bufferView": 1,
      "byteOffset": 63424,
      "componentType": 5126,
      "count": 48,
      "max": [
        0.4518260061740875,
        0.30505064129829407
      ],
      "min": [
        0.3749999403953552,
        0.2890625
      ],
      "type": "VEC2"
    },
    {
      "bufferView": 0,
      "byteOffset": 49236,
      "componentType": 5125,
      "count": 72,
      "type": "SCALAR"
    },
    {
      "bufferView": 2,
      "byteOffset": 191424,
      "componentType": 5126,
      "count": 584,
      "max": [
        0.3581918776035309,
        0.7255942821502686,
        0.8553815484046936
      ],
      "min": [
        -0.3581918478012085,
        0.4162566363811493,
        0.15668007731437683
      ],
      "type": "VEC3"
    },
    {
      "bufferView": 2,
      "byteOffset": 198432,
      "componentType": 5126,
      "count": 584,
      "max": [
        0.9999998807907104,
        0.9978941679000854,
        0.9997396469116211
      ],
      "min": [
        -0.9999998807907104,
        -0.3019380569458008,
        -0.952987790107727
      ],
      "type": "VEC3"
    },
    {
      "bufferView": 1,
      "byteOffset": 63808,
      "componentType": 5126,
      "count": 584,
      "max": [
        0.5890210866928101,
        0.3811403512954712
      ],
      "min": [
        0.5355091094970703,
        0.359375
      ],
      "type": "VEC2"
    },
    {
      "bufferView": 0,
      "byteOffset": 49524,
      "componentType": 5125,
      "count": 888,
      "type": "SCALAR"
    },
    {
      "bufferView": 2,
      "byteOffset": 205440,
      "componentType": 5126,
      "count": 48,
      "max": [
        -2.6389901638031006,
        0.8560123443603516,
        0.27438485622406006
      ],
      "min": [
        -3.2406582832336426,
        0.6519261002540588,
        -0.30535995960235596
      ],
      "type": "VEC3"
    },
    {
      "bufferView": 2,
      "byteOffset": 206016,
      "componentType": 5126,
      "count": 48,
      "max": [
        0.7456918954849243,
        0.963563084602356,
        0.8841484785079956
      ],
      "min": [
        -0.7387561202049255,
        0.4220210909843445,
        -0.5483293533325195
      ],
      "type": "VEC3"
    },
    {
      "bufferView": 1,
      "byteOffset": 68480,
      "componentType": 5126,
      "count": 48,
      "max": [
        0.5119132995605469,
        0.28125
      ],
      "min": [
        0.45158421993255615,
        0.2604733407497406
      ],
      "type": "VEC2"
    },
    {
      "bufferView": 0,
      "byteOffset": 53076,
      "componentType": 5125,
      "count": 72,
      "type": "SCALAR"
    },
    {
      "bufferView": 2,
      "byteOffset": 206592,
      "componentType": 5126,
      "count": 48,
      "max": [
        -1.4335522651672363,
        0.84740149974823,
        0.12319883704185486
      ],
      "min": [
        -2.0148696899414063,
        0.6467811465263367,
        -0.4355677366256714
      ],
      "type": "VEC3"
    },
    {
      "bufferView": 2,
      "byteOffset": 207168,
      "componentType": 5126,
      "count": 48,
      "max": [
        0.5965778827667236,
        0.9628600478172302,
        0.7718426585197449
      ],
      "min": [
        -0.5503692030906677,
        0.6350628733634949,
        -0.3347036838531494
      ],
      "type": "VEC3"
    },
    {
      "bufferView": 1,
      "byteOffset": 68864,
      "componentType": 5126,
      "count": 48,
      "max": [
        0.5119352340698242,
        0.3281250298023224
      ],
      "min": [
        0.45184141397476196,
        0.3125
      ],
      "type": "VEC2"
    },
    {
      "bufferView": 0,
      "byteOffset": 53364,
      "componentType": 5125,
      "count": 72,
      "type": "SCALAR"
    },
    {
      "bufferView": 2,
      "byteOffset": 207744,
      "componentType": 5126,
      "count": 48,
      "max": [
        -1.9515142440795898,
        0.7091431617736816,
        0.7792927026748657
      ],
      "min": [
        -2.525719404220581,
        0.5060744285583496,
        0.22600987553596497
      ],
      "type": "VEC3"
    },
    {
      "bufferView": 2,
      "byteOffset": 208320,
      "componentType": 5126,
      "count": 48,
      "max": [
        0.6987337470054626,
        0.9635631442070007,
        0.8450877666473389
      ],
      "min": [
        -0.6897950172424316,
        0.4578743278980255,
        -0.4944082200527191
      ],
      "type": "VEC3"
    },
    {
      "bufferView": 1,
      "byteOffset": 69248,
      "componentType": 5126,
      "count": 48,
      "max": [
        0.5667015910148621,
        0.3046874701976776
      ],
      "min": [
        0.5119187831878662,
        0.2890625
      ],
      "type": "VEC2"
    },
    {
      "bufferView": 0,
      "byteOffset": 53652,
      "componentType": 5125,
      "count": 72,
      "type": "SCALAR"
    }
  ],
  "asset": {
    "extras": {
      "author": "andriabuzaladze50 (https://sketchfab.com/andriabuzaladze50)",
      "license": "CC-BY-4.0 (http://creativecommons.org/licenses/by/4.0/)",
      "source": "https://sketchfab.com/3d-models/low-poly-controller-7ed40bab6cc94cb4bba0d47f657eae11",
      "title": "Low poly controller"
    },
    "generator": "Sketchfab-16.63.0",
    "version": "2.0"
  },
  "bufferViews": [
    {
      "buffer": 0,
      "byteLength": 53940,
      "name": "floatBufferViews",
      "target": 34963
    },
    {
      "buffer": 0,
      "byteLength": 69632,
      "byteOffset": 53940,
      "byteStride": 8,
      "name": "floatBufferViews",
      "target": 34962
    },
    {
      "buffer": 0,
      "byteLength": 208896,
      "byteOffset": 123572,
      "byteStride": 12,
      "name": "floatBufferViews",
      "target": 34962
    }
  ],
  "buffers": [
    {
      "byteLength": 332468,
      "uri": "scene.bin"
    }
  ],
  "materials": [
    {
      "doubleSided": true,
      "name": "Material.001",
      "pbrMetallicRoughness": {
        "baseColorFactor": [
          0.000777287,
          0.000777287,
          0.000777287,
          1.0
        ],
        "metallicFactor": 0.0,
        "roughnessFactor": 0.9998449028598084
      }
    },
    {
      "doubleSided": true,
      "name": "Material.003",
      "pbrMetallicRoughness": {
        "baseColorFactor": [
          0.105091,
          0.800079,
          0.0350603,
          1.0
        ],
        "metallicFactor": 0.0,
        "roughnessFactor": 0.8664865721730823
      }
    },
    {
      "doubleSided": true,
      "name": "Material.006",
      "pbrMetallicRoughness": {
        "baseColorFactor": [
          0.32801399999999997,
          0.32801399999999997,
          0.32801399999999997,
          1.0
        ],
        "metallicFactor": 0.0,
        "roughnessFactor": 0.9148228896462349
      }
    },
    {
      "doubleSided": true,
      "name": "Material.002",
      "pbrMetallicRoughness": {
        "baseColorFactor": [
          0.800023,
          0.111175,
          0.0979252,
          1.0
        ],
        "metallicFactor": 0.0,
        "roughnessFactor": 0.9426074135887883
      }
    },
    {
      "doubleSided": true,
      "name": "Material.004",
      "pbrMetallicRoughness": {
        "baseColorFactor": [
          0.0800823,
          0.354998,
          0.800079,
          1.0
        ],
        "metallicFactor": 0.0,
        "roughnessFactor": 0.9265036274193433
      }
    },
    {
      "doubleSided": true,
      "name": "Material.005",
      "pbrMetallicRoughness": {
        "baseColorFactor": [
          0.800094,
          0.580466,
          0.0425387,
          1.0
        ],
        "metallicFactor": 0.0,
        "roughnessFactor": 0.8684475231388498
      }
    }
  ],
  "meshes": [
    {
      "name": "Cube_Material.001_0",
      "primitives": [
        {
          "attributes": {
            "NORMAL": 1,
            "POSITION": 0,
            "TEXCOORD_0": 2
          },
          "indices": 3,
          "material": 0,
          "mode": 4
        }
      ]
    },
    {
      "name": "Cube_Material.003_0",
      "primitives": [
        {
          "attributes": {
            "NORMAL": 5,
            "POSITION": 4,
            "TEXCOORD_0": 6
          },
          "indices": 7,
          "material": 1,
          "mode": 4
        }
      ]
    },
    {
      "name": "Cube_Material.006_0",
      "primitives": [
        {
          "attributes": {
            "NORMAL": 9,
            "POSITION": 8,
            "TEXCOORD_0": 10
          },
          "indices": 11,
          "material": 2,
          "mode": 4
        }
      ]
    },
    {
      "name": "Cube_Material.002_0",
      "primitives": [
        {
          "attributes": {
            "NORMAL": 13,
            "POSITION": 12,
            "TEXCOORD_0": 14
          },
          "indices": 15,
          "material": 3,
          "mode": 4
        }
      ]
    },
    {
      "name": "Cube_Material.004_0",
      "primitives": [
        {
          "attributes": {
            "NORMAL": 17,
            "POSITION": 16,
            "TEXCOORD_0": 18
          },
          "indices": 19,
          "material": 4,
          "mode": 4
        }
      ]
    },
    {
      "name": "Cube_Material.005_0",
      "primitives": [
        {
          "attributes": {
            "NORMAL": 21,
            "POSITION": 20,
            "TEXCOORD_0": 22
          },
          "indices": 23,
          "material": 5,
          "mode": 4
        }
      ]
    }
  ],
  "nodes": [
    {
      "children": [
        1
      ],
      "matrix": [
        1.0,
        0.0,
        0.0,
        0.0,
        0.0,
        2.220446049250313e-16,
        -1.0,
        0.0,
        0.0,
        1.0,
        2.220446049250313e-16,
        0.0,
        0.0,
        0.0,
        0.0,
        1.0
      ],
      "name": "Sketchfab_model"
    },
    {
      "children": [
        2
      ],
      "matrix": [
        0.009999999776482582,
        0.0,
        0.0,
        0.0,
        0.0,
        0.0,
        0.009999999776482582,
        0.0,
        0.0,
        -0.009999999776482582,
        0.0,
        0.0,
        0.0,
        0.0,
        0.0,
        1.0
      ],
      "name": "c430a65dac7747f49e2cec71ed77a48f.fbx"
    },
    {
      "children": [
        3,
        5,
        12
      ],
      "name": "RootNode"
    },
    {
      "children": [
        4
      ],
      "matrix": [
        23.17651184765466,
        -32.51162948809431,
        91.68337755954212,
        0.0,
        5.992452284973715,
        94.54780254298699,
        32.012553005104984,
        0.0,
        -97.09242140243667,
        -1.9253104864570223,
        23.861126542214,
        0.0,
        -373.5018615722656,
        507.4571533203125,
        -1605.476318359375,
        1.0
      ],
      "name": "Camera"
    },
    {
      "name": "Object_4"
    },
    {
      "children": [
        6,
        7,
        8,
        9,
        10,
        11
      ],
      "matrix": [
        100.0,
        0.0,
        0.0,
        0.0,
        0.0,
        -1.629206793918314e-05,
        -99.99999999999868,
        0.0,
        0.0,
        99.99999999999868,
        -1.629206793918314e-05,
        0.0,
        0.0,
        102.06747436523438,
        0.0,
        1.0
      ],
      "name": "Cube"
    },
    {
      "mesh": 0,
      "name": "Cube_Material.001_0"
    },
    {
      "mesh": 1,
      "name": "Cube_Material.003_0"
    },
    {
      "mesh": 2,
      "name": "Cube_Material.006_0"
    },
    {
      "mesh": 3,
      "name": "Cube_Material.002_0"
    },
    {
      "mesh": 4,
      "name": "Cube_Material.004_0"
    },
    {
      "mesh": 5,
      "name": "Cube_Material.005_0"
    },
    {
      "children": [
        13
      ],
      "matrix": [
        -35.19781027457718,
        81.05881971494586,
        46.803652617020965,
        0.0,
        79.8231556445406,
        52.10811199212349,
        -30.21605555731469,
        0.0,
        -48.88127399190807,
        26.724760529352864,
        -83.04461588553924,
        0.0,
        407.6245422363281,
        590.38623046875,
        -100.54539489746094,
        1.0
      ],
      "name": "Light"
    },
    {
      "children": [
        14
      ],
      "matrix": [
        1.0,
        0.0,
        0.0,
        0.0,
        0.0,
        2.220446049250313e-16,
        1.0,
        0.0,
        0.0,
        -1.0,
        2.220446049250313e-16,
        0.0,
        0.0,
        0.0,
        0.0,
        1.0
      ],
      "name": "Object_13"
    },
    {
      "name": "Object_14"
    }
  ],
  "scene": 0,
  "scenes": [
    {
      "name": "Sketchfab_Scene",
      "nodes": [
        0
      ]
    }
  ]
}
